# xmcd
#
# Track frame offsets:
#	182
#	13882
#	26152
#	35232
#	46485
#	58440
#	70105
#	80390
#	92435
#	104830
#	116460
#	130097
#	140775
#	151622
#	163167
#	177297
#	189887
#	200317
#	211100
#	223010
#	236437
#	249460
#	262462
#
# Disc length: 3662 seconds
#
# Revision: 1
# Processed by: cddbd v1.5.1PL0 Copyright (c) Steve Scherf et al.
# Submitted via: audiograbber 1.83.01
#
DISCID=540e4c17
DTITLE=Webb Pierce - The Unavailable Sides
DYEAR=1900
DGENRE=
TTITLE0=California blues
TTITLE1=Shuffle on down
TTITLE2=I need you like a hole in the head
TTITLE3=I'm watching the stars
TTITLE4=Steeling the mood
TTITLE5=I've loved you forever it seems
TTITLE6=Hawaiian echoes
TTITLE7=Have you ever had the feeling
TTITLE8=Drifting Texas sand
TTITLE9=I got religion on a Saturday night
TTITLE10=The last waltz
TTITLE11=In the jailhouse
TTITLE12=I saw your face in the moon
TTITLE13=I'm sitting on top of the world
TTITLE14=Freight train blues
TTITLE15=Poor boy rag
TTITLE16=I've loved, I've laughed, I've cried
TTITLE17=Beautiful Hawaiian shores
TTITLE18=I'll forgive and forget
TTITLE19=A million years from now
TTITLE20=I heard her call my name in prayer
TTITLE21=You scared the love right out of me
TTITLE22=Hayride boogie
EXTD=
EXTT0=
EXTT1=
EXTT2=
EXTT3=
EXTT4=
EXTT5=
EXTT6=
EXTT7=
EXTT8=
EXTT9=
EXTT10=
EXTT11=
EXTT12=
EXTT13=
EXTT14=
EXTT15=
EXTT16=
EXTT17=
EXTT18=
EXTT19=
EXTT20=
EXTT21=
EXTT22=
PLAYORDER=
